<?xml version="1.0" standalone="no"?>
<!DOCTYPE svg PUBLIC "-//W3C//DTD SVG 20010904//EN" "http://www.w3.org/TR/2001/REC-SVG-20010904/DTD/svg10.dtd">
<svg version="1.0" xmlns="http://www.w3.org/2000/svg"
    width="284.000000pt" height="284.000000pt" viewBox="0 0 284.000000 284.000000"
    preserveAspectRatio="xMidYMid meet">
    <metadata> Created by potrace 1.14, written by Peter Selinger 2001-2017 </metadata>
    <g transform="translate(0.000000,284.000000) scale(0.100000,-0.100000)"
        fill="#000000" stroke="none">
        <path
            d="M505 2832 c-40 -14 -81 -44 -105 -80 l-25 -37 0 -1295 0 -1295 24
-36 c14 -19 41 -46 60 -60 l36 -24 925 0 925 0 35 25 c41 28 60 53 77 95 17
43 17 2547 0 2591 -18 46 -48 79 -95 103 -41 21 -42 21 -939 20 -494 -1 -907
-4 -918 -7z m1618 -265 c61 -39 61 -41 62 -370 1 -284 0 -304 -20 -342 -36
-72 -4 -69 -738 -70 -726 -2 -710 -3 -752 61 -18 27 -19 50 -20 339 l0 310 24
34 c44 61 22 59 751 58 618 -2 668 -3 693 -20z m-1138 -1011 l25 -6 0 -153 c0
-83 -4 -158 -9 -165 -6 -11 -40 -14 -137 -14 -189 0 -182 -1 -190 25 -12 36
-6 287 6 302 16 20 239 28 305 11z m583 -1 c22 -5 22 -8 22 -158 0 -83 -4
-158 -9 -166 -7 -11 -42 -14 -161 -14 -163 0 -168 1 -171 53 -4 103 2 264 12
276 15 19 238 25 307 9z m512 5 c36 0 71 -4 78 -8 8 -6 12 -48 13 -149 1 -159
-3 -183 -34 -184 -12 0 -82 -1 -156 -1 -151 0 -150 -1 -151 77 -3 159 0 239
10 250 13 16 44 21 120 18 30 -1 84 -2 120 -3z m-1081 -544 c16 -10 15 -308
-1 -324 -8 -8 -58 -12 -159 -12 -118 0 -149 3 -159 15 -9 10 -13 56 -13 143
-1 143 5 179 31 184 30 6 290 1 301 -6z m583 -4 c15 -15 14 -298 -2 -317 -10
-12 -42 -15 -159 -15 -80 0 -152 4 -160 9 -10 7 -13 41 -13 149 0 153 4 179
30 184 41 8 294 0 304 -10z m579 1 c16 -16 14 -300 -1 -319 -18 -20 -302 -21
-319 0 -12 15 -17 279 -6 309 9 21 16 22 177 21 84 0 143 -5 149 -11z m-215
-534 c92 -29 111 -145 34 -214 -21 -19 -38 -20 -542 -22 -574 -2 -570 -3 -608
59 -25 42 -25 84 0 126 37 60 35 60 584 60 295 1 514 -3 532 -9z" />
    </g>
</svg>